<svg width="20" height="20" viewBox="0 0 20 20" fill="none" xmlns="http://www.w3.org/2000/svg">
<g clip-path="url(#clip0_8437_664)">
<path d="M5.83337 15C4.91671 15 4.17504 15.75 4.17504 16.6666C4.17504 17.5833 4.91671 18.3333 5.83337 18.3333C6.75004 18.3333 7.50004 17.5833 7.50004 16.6666C7.50004 15.75 6.75004 15 5.83337 15ZM0.833374 1.66663V3.33329H2.50004L5.50004 9.65829L4.37504 11.7C4.24171 11.9333 4.16671 12.2083 4.16671 12.5C4.16671 13.4166 4.91671 14.1666 5.83337 14.1666H15.8334V12.5H6.18337C6.06671 12.5 5.97504 12.4083 5.97504 12.2916L6.00004 12.1916L6.75004 10.8333H12.9584C13.5834 10.8333 14.1334 10.4916 14.4167 9.97496L17.4 4.56663C17.4667 4.44996 17.5 4.30829 17.5 4.16663C17.5 3.70829 17.125 3.33329 16.6667 3.33329H4.34171L3.55837 1.66663H0.833374ZM14.1667 15C13.25 15 12.5084 15.75 12.5084 16.6666C12.5084 17.5833 13.25 18.3333 14.1667 18.3333C15.0834 18.3333 15.8334 17.5833 15.8334 16.6666C15.8334 15.75 15.0834 15 14.1667 15Z" fill="#1D2734"/>
</g>
<defs>
<clipPath id="clip0_8437_664">
<rect width="20" height="20" fill="white"/>
</clipPath>
</defs>
</svg>
